<svg id="svg" version="1.1" xmlns="http://www.w3.org/2000/svg" xmlns:xlink="http://www.w3.org/1999/xlink" width="400" height="400" viewBox="0, 0, 400,400"><g id="svgg"><path id="path0" d="M115.581 58.313 C 115.306 58.366,115.289 60.263,115.330 86.522 L 115.375 114.674 143.633 114.761 C 168.497 114.838,171.912 114.880,172.058 115.112 C 172.394 115.644,172.277 228.739,171.940 229.019 C 171.697 229.221,167.101 229.260,143.495 229.260 C 119.890 229.260,115.294 229.221,115.051 229.019 C 114.784 228.797,114.761 226.599,114.761 200.611 C 114.761 175.086,114.735 172.432,114.484 172.336 C 114.020 172.158,58.551 172.213,58.440 172.391 C 58.309 172.603,58.309 285.391,58.440 285.602 C 58.501 285.700,69.620 285.764,86.624 285.764 C 113.589 285.764,114.718 285.777,114.996 286.084 C 115.263 286.378,115.289 288.662,115.330 314.512 L 115.375 342.619 171.956 342.663 C 217.106 342.699,228.566 342.663,228.678 342.488 C 228.755 342.368,228.818 329.664,228.817 314.257 C 228.816 293.541,228.868 286.183,229.015 286.005 C 229.184 285.802,238.032 285.764,285.863 285.764 C 319.625 285.764,342.551 285.700,342.609 285.605 C 342.717 285.432,342.750 58.504,342.643 58.397 C 342.538 58.293,286.613 58.340,286.444 58.445 C 286.357 58.499,286.290 70.732,286.290 86.624 C 286.290 113.608,286.277 114.718,285.970 114.997 C 285.545 115.382,229.639 115.451,229.116 115.068 C 228.836 114.863,228.817 113.021,228.820 86.668 C 228.824 59.938,228.808 58.483,228.516 58.411 C 228.165 58.323,116.031 58.227,115.581 58.313 M285.940 172.054 C 286.404 172.519,286.504 228.287,286.041 228.920 C 285.695 229.394,229.563 229.463,229.090 228.990 C 228.652 228.552,228.677 172.244,229.115 171.923 C 229.710 171.487,285.502 171.616,285.940 172.054 M250.898 182.917 L 250.898 186.421 257.819 186.421 L 264.739 186.421 264.739 182.917 L 264.739 179.413 257.819 179.413 L 250.898 179.413 250.898 182.917 M236.706 200.526 L 236.706 207.446 243.714 207.446 L 250.723 207.446 250.723 204.030 L 250.723 200.613 247.219 200.613 L 243.714 200.613 243.714 197.109 L 243.714 193.605 240.210 193.605 L 236.706 193.605 236.706 200.526 M250.898 197.021 L 250.898 200.438 254.314 200.438 L 257.731 200.438 257.731 197.021 L 257.731 193.605 254.314 193.605 L 250.898 193.605 250.898 197.021 M272.040 200.730 C 271.975 200.794,271.923 202.369,271.923 204.230 L 271.923 207.614 268.463 207.662 L 265.002 207.709 264.956 214.674 L 264.911 221.638 268.418 221.638 L 271.925 221.638 271.885 218.231 C 271.863 216.358,271.909 214.761,271.986 214.683 C 272.064 214.606,273.639 214.542,275.486 214.542 L 278.844 214.542 278.889 207.578 L 278.935 200.613 275.546 200.613 C 273.682 200.613,272.104 200.666,272.040 200.730 M236.706 218.130 L 236.706 221.638 240.214 221.638 L 243.722 221.638 243.674 218.178 L 243.627 214.717 240.166 214.670 L 236.706 214.622 236.706 218.130 " stroke="none" fill="#fafafa" fill-rule="evenodd"></path><path id="path1" d="M0.000 200.000 L 0.000 400.000 200.000 400.000 L 400.000 400.000 400.000 200.000 L 400.000 0.000 200.000 0.000 L 0.000 0.000 0.000 200.000 M229.027 57.933 C 229.335 58.212,229.347 59.326,229.347 86.405 L 229.347 114.587 257.474 114.543 L 285.601 114.498 285.639 86.320 C 285.676 58.651,285.683 58.136,286.017 57.892 C 286.649 57.430,342.593 57.530,343.057 57.994 C 343.573 58.510,343.617 285.296,343.101 285.922 L 342.795 286.295 286.115 286.336 L 229.435 286.378 229.391 314.626 L 229.346 342.875 228.938 343.142 C 228.370 343.515,115.274 343.465,114.901 343.092 C 114.717 342.908,114.666 337.544,114.636 314.745 C 114.615 299.279,114.551 286.550,114.494 286.458 C 114.429 286.352,103.969 286.290,86.198 286.290 C 58.505 286.290,58.003 286.284,57.825 285.951 C 57.487 285.320,57.580 172.318,57.919 171.979 C 58.306 171.592,114.769 171.554,115.090 171.940 C 115.232 172.112,115.298 179.885,115.330 200.368 L 115.375 228.559 143.495 228.559 L 171.616 228.559 171.616 171.967 L 171.616 115.375 143.325 115.287 L 115.034 115.199 114.812 114.761 C 114.383 113.917,114.581 58.209,115.014 57.892 C 115.576 57.481,228.572 57.522,229.027 57.933 M229.454 172.507 C 229.315 172.869,229.315 228.182,229.454 228.545 C 229.550 228.796,232.214 228.822,257.837 228.822 L 286.115 228.822 286.115 200.526 L 286.115 172.230 257.837 172.230 C 232.214 172.230,229.550 172.256,229.454 172.507 M264.874 182.873 L 264.827 186.509 257.819 186.509 L 250.810 186.509 250.763 182.873 L 250.716 179.238 257.819 179.238 L 264.922 179.238 264.874 182.873 M243.850 196.981 L 243.897 200.446 247.266 200.398 L 250.635 200.350 250.683 196.890 L 250.730 193.430 254.318 193.430 L 257.906 193.430 257.906 197.021 L 257.906 200.613 254.402 200.613 L 250.898 200.613 250.898 204.117 L 250.898 207.622 243.714 207.622 L 236.531 207.622 236.531 200.522 L 236.531 193.423 240.166 193.470 L 243.802 193.517 243.850 196.981 M279.106 207.530 L 279.106 214.623 275.558 214.670 L 272.011 214.717 271.963 218.265 L 271.916 221.813 268.328 221.813 L 264.739 221.813 264.739 214.630 L 264.739 207.446 268.244 207.446 L 271.748 207.446 271.748 204.059 C 271.748 202.196,271.800 200.619,271.865 200.555 C 271.929 200.491,273.584 200.438,275.544 200.438 L 279.106 200.438 279.106 207.530 M243.802 218.134 L 243.802 221.726 240.166 221.773 L 236.531 221.821 236.531 218.254 C 236.531 216.293,236.585 214.634,236.651 214.568 C 236.717 214.502,238.353 214.469,240.287 214.495 L 243.802 214.542 243.802 218.134 " stroke="none" fill="#040404" fill-rule="evenodd"></path><path id="path2" d="M115.014 57.892 C 114.581 58.209,114.383 113.917,114.812 114.761 L 115.034 115.199 143.325 115.287 L 171.616 115.375 171.616 171.967 L 171.616 228.559 143.495 228.559 L 115.375 228.559 115.330 200.368 C 115.298 179.885,115.232 172.112,115.090 171.940 C 114.769 171.554,58.306 171.592,57.919 171.979 C 57.580 172.318,57.487 285.320,57.825 285.951 C 58.003 286.284,58.505 286.290,86.198 286.290 C 103.969 286.290,114.429 286.352,114.494 286.458 C 114.551 286.550,114.615 299.279,114.636 314.745 C 114.666 337.544,114.717 342.908,114.901 343.092 C 115.274 343.465,228.370 343.515,228.938 343.142 L 229.346 342.875 229.391 314.626 L 229.435 286.378 286.115 286.336 L 342.795 286.295 343.101 285.922 C 343.617 285.296,343.573 58.510,343.057 57.994 C 342.593 57.530,286.649 57.430,286.017 57.892 C 285.683 58.136,285.676 58.651,285.639 86.320 L 285.601 114.498 257.474 114.543 L 229.347 114.587 229.347 86.405 C 229.347 59.326,229.335 58.212,229.027 57.933 C 228.572 57.522,115.576 57.481,115.014 57.892 M228.994 58.339 C 229.122 58.578,229.176 67.345,229.168 86.664 C 229.160 109.349,229.200 114.671,229.384 114.788 C 229.772 115.034,285.482 114.973,285.729 114.726 C 285.891 114.564,285.940 108.049,285.940 86.465 C 285.940 64.881,285.988 58.366,286.150 58.204 C 286.456 57.898,342.541 57.898,342.847 58.204 C 343.267 58.624,343.139 285.708,342.718 285.933 C 342.487 286.057,324.490 286.115,285.874 286.115 C 249.468 286.115,229.331 286.175,229.263 286.285 C 229.205 286.379,229.162 298.984,229.168 314.298 C 229.175 332.380,229.118 342.301,229.005 342.599 L 228.830 343.057 172.094 343.057 C 128.199 343.057,115.309 343.010,115.147 342.847 C 114.985 342.685,114.936 336.170,114.936 314.586 C 114.936 293.002,114.888 286.487,114.726 286.325 C 114.564 286.163,108.046 286.115,86.452 286.115 C 62.986 286.115,58.355 286.076,58.189 285.876 C 57.816 285.427,57.915 172.373,58.288 172.098 C 58.810 171.715,114.366 171.784,114.791 172.169 C 115.099 172.448,115.112 173.558,115.112 200.547 C 115.112 228.137,115.118 228.637,115.451 228.816 C 116.018 229.119,171.431 229.064,171.683 228.759 C 171.890 228.510,171.988 115.605,171.782 115.271 C 171.723 115.176,160.345 115.112,143.649 115.112 C 124.659 115.112,115.505 115.053,115.275 114.930 C 114.855 114.705,114.728 58.623,115.147 58.204 C 115.572 57.779,228.766 57.913,228.994 58.339 M229.387 172.201 C 229.079 172.397,229.058 228.386,229.366 228.757 C 229.534 228.959,234.014 228.990,257.533 228.954 L 285.502 228.910 257.566 228.866 C 235.485 228.830,229.601 228.775,229.491 228.602 C 229.310 228.317,229.310 172.735,229.491 172.449 C 229.601 172.276,235.502 172.221,257.653 172.186 L 285.677 172.141 257.643 172.100 C 242.225 172.078,229.510 172.123,229.387 172.201 M254.259 186.553 C 256.156 186.581,259.310 186.581,261.267 186.553 C 263.225 186.524,261.673 186.501,257.819 186.501 C 253.964 186.501,252.362 186.524,254.259 186.553 M243.788 197.021 C 243.788 198.949,243.813 199.761,243.845 198.827 C 243.876 197.892,243.876 196.315,243.845 195.323 C 243.814 194.330,243.788 195.094,243.788 197.021 M271.826 200.662 C 271.778 200.786,271.761 202.382,271.788 204.210 L 271.836 207.534 271.923 203.986 C 272.009 200.507,272.000 200.208,271.826 200.662 M236.648 214.582 C 236.602 214.657,238.176 214.695,240.146 214.667 L 243.728 214.616 243.678 218.206 C 243.650 220.181,243.688 221.736,243.762 221.661 C 243.836 221.586,243.876 219.954,243.850 218.034 L 243.802 214.542 240.267 214.495 C 238.322 214.469,236.694 214.508,236.648 214.582 " stroke="none" fill="#595959" fill-rule="evenodd"></path><path id="path3" d="M229.082 85.940 C 229.082 101.069,229.103 107.232,229.128 99.636 C 229.154 92.040,229.154 79.661,229.128 72.128 C 229.103 64.595,229.082 70.810,229.082 85.940 M129.435 115.068 C 137.168 115.093,149.823 115.093,157.556 115.068 C 165.289 115.043,158.962 115.022,143.495 115.022 C 128.029 115.022,121.702 115.043,129.435 115.068 M171.966 171.967 C 171.966 202.707,171.986 215.309,172.011 199.970 C 172.035 184.632,172.035 159.481,172.011 144.079 C 171.986 128.677,171.966 141.226,171.966 171.967 M72.492 172.010 C 80.226 172.036,92.880 172.036,100.613 172.010 C 108.346 171.985,102.019 171.965,86.553 171.965 C 71.086 171.965,64.759 171.985,72.492 172.010 M115.022 200.876 C 115.022 216.102,115.043 222.304,115.068 214.660 C 115.093 207.015,115.093 194.558,115.068 186.977 C 115.043 179.396,115.022 185.650,115.022 200.876 M229.082 200.526 C 229.082 215.366,229.103 221.411,229.128 213.959 C 229.154 206.507,229.154 194.365,229.128 186.977 C 229.103 179.589,229.082 185.686,229.082 200.526 M254.259 179.369 C 256.156 179.397,259.310 179.397,261.267 179.369 C 263.225 179.341,261.673 179.318,257.819 179.318 C 253.964 179.318,252.362 179.341,254.259 179.369 M236.611 200.526 C 236.611 204.380,236.634 205.932,236.662 203.974 C 236.690 202.017,236.690 198.863,236.662 196.966 C 236.634 195.069,236.611 196.671,236.611 200.526 M257.798 197.547 C 257.798 198.703,257.827 199.154,257.861 198.548 C 257.895 197.942,257.895 196.995,257.860 196.445 C 257.826 195.895,257.798 196.391,257.798 197.547 M247.269 200.567 L 250.737 200.621 250.686 204.113 C 250.658 206.033,250.696 207.544,250.770 207.469 C 250.845 207.394,250.884 205.802,250.858 203.930 L 250.810 200.526 247.306 200.520 L 243.802 200.514 247.269 200.567 M273.806 200.569 C 274.698 200.600,276.156 200.600,277.048 200.569 C 277.939 200.537,277.210 200.511,275.427 200.511 C 273.644 200.511,272.915 200.537,273.806 200.569 M279.011 207.622 C 279.011 211.428,279.034 212.985,279.062 211.082 C 279.091 209.179,279.091 206.064,279.062 204.161 C 279.034 202.258,279.011 203.815,279.011 207.622 M266.710 207.577 C 267.650 207.608,269.187 207.608,270.127 207.577 C 271.067 207.545,270.298 207.520,268.419 207.520 C 266.540 207.520,265.771 207.545,266.710 207.577 M264.819 214.717 C 264.819 218.572,264.842 220.124,264.871 218.166 C 264.899 216.208,264.899 213.055,264.871 211.158 C 264.842 209.261,264.819 210.863,264.819 214.717 M236.613 218.222 L 236.618 221.726 240.035 221.731 L 243.452 221.737 240.083 221.684 L 236.713 221.631 236.660 218.174 L 236.607 214.717 236.613 218.222 M266.710 221.769 C 267.650 221.800,269.187 221.800,270.127 221.769 C 271.067 221.737,270.298 221.712,268.419 221.712 C 266.540 221.712,265.771 221.737,266.710 221.769 M58.147 285.808 C 58.374 286.098,59.902 286.112,86.443 286.071 L 114.498 286.028 86.482 285.983 C 64.428 285.948,58.407 285.892,58.186 285.720 C 57.938 285.526,57.934 285.537,58.147 285.808 M257.789 286.071 C 273.384 286.096,298.850 286.096,314.381 286.071 C 329.912 286.046,317.153 286.026,286.027 286.026 C 254.901 286.026,242.194 286.046,257.789 286.071 M229.082 315.024 C 229.082 330.105,229.103 336.275,229.128 328.734 C 229.154 321.194,229.154 308.855,229.128 301.314 C 229.103 293.774,229.082 299.943,229.082 315.024 " stroke="none" fill="#7c7c7c" fill-rule="evenodd"></path><path id="path4" d="M115.212 58.269 C 114.874 58.607,114.782 113.969,115.118 114.598 C 115.296 114.930,115.797 114.936,143.387 114.936 C 170.375 114.936,171.486 114.949,171.764 115.257 C 172.116 115.645,172.223 228.004,171.873 228.658 C 171.586 229.195,115.403 229.191,115.116 228.654 C 114.990 228.419,114.934 219.502,114.939 200.348 C 114.942 184.968,114.899 172.310,114.843 172.220 C 114.679 171.955,58.469 171.999,58.204 172.265 C 57.898 172.571,57.898 285.423,58.204 285.729 C 58.366 285.891,64.862 285.940,86.379 285.940 C 108.626 285.940,114.406 285.985,114.646 286.161 C 114.931 286.369,114.949 288.050,114.940 314.326 C 114.931 339.476,114.958 342.309,115.206 342.664 L 115.482 343.057 171.901 343.057 C 210.456 343.057,228.426 343.000,228.658 342.876 C 228.991 342.698,228.997 342.197,228.997 314.592 C 228.997 289.279,229.024 286.463,229.272 286.215 C 229.521 285.966,234.922 285.940,286.092 285.940 C 329.838 285.940,342.684 285.892,342.847 285.729 C 343.212 285.365,343.147 58.634,342.782 58.269 C 342.358 57.845,286.636 57.848,286.212 58.272 C 285.960 58.524,285.934 61.193,285.943 86.575 C 285.948 101.988,285.905 114.675,285.848 114.768 C 285.682 115.036,229.475 114.994,229.207 114.726 C 229.045 114.564,228.997 108.049,228.997 86.465 C 228.997 64.881,228.948 58.366,228.787 58.204 C 228.423 57.840,115.576 57.905,115.212 58.269 M228.516 58.411 C 228.808 58.483,228.824 59.938,228.820 86.668 C 228.817 113.021,228.836 114.863,229.116 115.068 C 229.639 115.451,285.545 115.382,285.970 114.997 C 286.277 114.718,286.290 113.608,286.290 86.624 C 286.290 70.732,286.357 58.499,286.444 58.445 C 286.613 58.340,342.538 58.293,342.643 58.397 C 342.750 58.504,342.717 285.432,342.609 285.605 C 342.551 285.700,319.625 285.764,285.863 285.764 C 238.032 285.764,229.184 285.802,229.015 286.005 C 228.868 286.183,228.816 293.541,228.817 314.257 C 228.818 329.664,228.755 342.368,228.678 342.488 C 228.566 342.663,217.106 342.699,171.956 342.663 L 115.375 342.619 115.330 314.512 C 115.289 288.662,115.263 286.378,114.996 286.084 C 114.718 285.777,113.589 285.764,86.624 285.764 C 69.620 285.764,58.501 285.700,58.440 285.602 C 58.309 285.391,58.309 172.603,58.440 172.391 C 58.551 172.213,114.020 172.158,114.484 172.336 C 114.735 172.432,114.761 175.086,114.761 200.611 C 114.761 226.599,114.784 228.797,115.051 229.019 C 115.294 229.221,119.890 229.260,143.495 229.260 C 167.101 229.260,171.697 229.221,171.940 229.019 C 172.277 228.739,172.394 115.644,172.058 115.112 C 171.912 114.880,168.497 114.838,143.633 114.761 L 115.375 114.674 115.330 86.522 C 115.289 60.263,115.306 58.366,115.581 58.313 C 116.031 58.227,228.165 58.323,228.516 58.411 M229.115 171.923 C 228.677 172.244,228.652 228.552,229.090 228.990 C 229.417 229.317,285.595 229.411,285.922 229.085 C 286.039 228.968,276.660 228.925,257.787 228.955 C 236.874 228.989,229.413 228.949,229.236 228.802 C 228.879 228.506,228.878 172.546,229.236 172.249 C 229.412 172.103,236.920 172.063,257.798 172.097 C 280.491 172.133,286.062 172.098,285.822 171.923 C 285.585 171.750,279.635 171.704,257.468 171.704 C 235.301 171.704,229.352 171.750,229.115 171.923 M286.200 200.526 C 286.200 216.040,286.221 222.361,286.246 214.572 C 286.271 206.783,286.271 194.089,286.246 186.364 C 286.221 178.638,286.200 185.011,286.200 200.526 M250.796 182.830 C 250.796 184.757,250.822 185.569,250.853 184.635 C 250.885 183.700,250.885 182.124,250.854 181.131 C 250.822 180.138,250.797 180.902,250.796 182.830 M264.813 182.830 C 264.813 184.757,264.838 185.569,264.870 184.635 C 264.901 183.700,264.901 182.124,264.870 181.131 C 264.839 180.138,264.813 180.902,264.813 182.830 M238.424 193.560 C 239.417 193.592,240.993 193.592,241.928 193.560 C 242.862 193.529,242.050 193.503,240.123 193.503 C 238.195 193.503,237.431 193.529,238.424 193.560 M250.840 193.547 C 250.678 193.709,250.692 200.613,250.854 200.613 C 250.926 200.614,250.963 199.038,250.935 197.113 L 250.884 193.613 254.264 193.561 L 257.643 193.509 254.300 193.469 C 252.461 193.448,250.904 193.482,250.840 193.547 M253.840 200.568 C 254.446 200.602,255.392 200.602,255.942 200.567 C 256.492 200.533,255.996 200.505,254.840 200.505 C 253.684 200.505,253.233 200.534,253.840 200.568 M240.067 207.577 C 241.964 207.606,245.118 207.606,247.075 207.578 C 249.033 207.549,247.481 207.526,243.627 207.526 C 239.772 207.526,238.170 207.549,240.067 207.577 " stroke="none" fill="#848484" fill-rule="evenodd"></path></g></svg>